<?xml version="1.0" standalone="no"?>
<!DOCTYPE svg PUBLIC "-//W3C//DTD SVG 20010904//EN"
 "http://www.w3.org/TR/2001/REC-SVG-20010904/DTD/svg10.dtd">
<svg version="1.0" xmlns="http://www.w3.org/2000/svg"
 width="300.000000pt" height="300.000000pt" viewBox="0 0 300.000000 300.000000"
 preserveAspectRatio="xMidYMid meet">
<metadata>
Created by potrace 1.11, written by Peter Selinger 2001-2013
</metadata>
<g transform="translate(0.000000,300.000000) scale(0.100000,-0.100000)"
fill="#000000" stroke="none">
<path d="M1436 2169 c-158 -39 -237 -96 -293 -209 -23 -47 -27 -68 -27 -145
-1 -75 3 -98 23 -138 63 -128 167 -194 396 -253 17 -4 35 -8 40 -10 6 -2 21
-5 34 -8 58 -13 138 -39 173 -57 88 -45 91 -158 5 -223 -119 -91 -337 -65
-416 49 -13 19 -30 57 -38 85 l-15 51 -91 -7 c-51 -4 -104 -8 -118 -9 -45 -3
-48 -10 -33 -78 57 -249 238 -371 543 -366 230 4 372 73 450 218 22 42 33 80
39 134 18 173 -50 302 -200 378 -51 26 -223 81 -288 92 -94 17 -202 61 -232
94 -36 39 -30 107 11 141 39 31 75 42 166 46 131 7 211 -40 238 -141 l12 -45
120 6 c66 3 125 5 132 6 8 0 10 14 6 48 -18 152 -110 264 -262 320 -55 20 -88
25 -201 28 -74 2 -153 -1 -174 -7z"/>
</g>
</svg>
